<svg width="16" height="17" viewBox="0 0 16 17" fill="none" xmlns="http://www.w3.org/2000/svg">
<g clip-path="url(#clip0_135_2843)">
<path fill-rule="evenodd" clip-rule="evenodd" d="M3.18406 0.505836L3.18559 0.506053L3.18791 0.506386L3.19487 0.50741L3.21789 0.510939C3.23715 0.513968 3.26417 0.518383 3.29808 0.524339C3.36587 0.53624 3.46155 0.554347 3.57836 0.57992C3.8112 0.630893 4.13212 0.712425 4.48563 0.835339C5.05369 1.03285 5.77254 1.35961 6.32515 1.89108C7.02026 1.62508 7.81433 1.49729 8.59226 1.49352L8.60246 1.49344L8.61506 1.49345L8.62766 1.49344L8.63786 1.49352C9.41579 1.49729 10.2099 1.62508 10.905 1.89108C11.4576 1.35961 12.1765 1.03285 12.7445 0.835339C13.098 0.712425 13.4189 0.630893 13.6518 0.57992C13.7686 0.554347 13.8643 0.53624 13.9321 0.524339C13.966 0.518383 13.993 0.513968 14.0123 0.510939L14.0353 0.50741L14.0422 0.506386L14.0445 0.506053L14.0461 0.505836C14.345 0.463763 14.6277 0.653173 14.7017 0.945113C14.8813 1.65451 14.8567 2.41659 14.7189 3.08284C14.6229 3.54661 14.4652 3.99702 14.2563 4.3707C14.8565 5.12535 15.339 6.1372 15.3336 7.14209C15.3242 8.91247 14.7467 10.1075 13.7861 10.8775C13.112 11.4179 12.2924 11.7121 11.4665 11.8856C11.4937 11.9468 11.5189 12.0091 11.542 12.0722C11.6801 12.4504 11.7382 12.8529 11.7129 13.2545V15.9105C11.7129 16.2361 11.4483 16.5 11.1219 16.5C10.7955 16.5 10.5309 16.2361 10.5309 15.9105V13.2349C10.5309 13.2211 10.5314 13.2073 10.5324 13.1936C10.5496 12.9498 10.5151 12.7051 10.4313 12.4755C10.3475 12.2459 10.2162 12.0365 10.0459 11.861C9.89019 11.7004 9.83893 11.4657 9.91346 11.2551C9.98799 11.0443 10.1756 10.8938 10.3979 10.8662C11.4581 10.7348 12.3843 10.4887 13.0457 9.95853C13.6728 9.45593 14.1437 8.62973 14.1517 7.13583C14.1557 6.36619 13.6939 5.45992 13.0864 4.82305C12.8794 4.60608 12.8685 4.26879 13.0609 4.03891C13.2493 3.81387 13.4493 3.38601 13.5613 2.84463C13.632 2.5024 13.6619 2.14179 13.6406 1.79497C13.4884 1.83469 13.3156 1.88529 13.1336 1.94858C12.5137 2.16413 11.8827 2.49427 11.5297 2.95801C11.3577 3.18393 11.0489 3.25567 10.7945 3.12877C10.2054 2.83477 9.42386 2.67406 8.61506 2.67239C7.80626 2.67406 7.02479 2.83477 6.4356 3.12877C6.18128 3.25567 5.8724 3.18393 5.70045 2.95801C5.3475 2.49427 4.7165 2.16413 4.09656 1.94858C3.91452 1.88529 3.74175 1.83469 3.58954 1.79497C3.56825 2.14179 3.59811 2.5024 3.6689 2.84463C3.78089 3.38601 3.98086 3.81387 4.16925 4.03891C4.36169 4.26879 4.35073 4.60608 4.14375 4.82305C3.5362 5.45992 3.07439 6.36619 3.07849 7.13583C3.08644 8.62973 3.55733 9.45593 4.18445 9.95853C4.84585 10.4887 5.77201 10.7348 6.83226 10.8662C7.05459 10.8938 7.24213 11.0443 7.31666 11.2551C7.39126 11.4657 7.33992 11.7004 7.18419 11.861C7.01393 12.0365 6.88266 12.2459 6.79879 12.4755C6.71499 12.7051 6.68052 12.9498 6.69772 13.1936C6.69872 13.2073 6.69919 13.2211 6.69919 13.2349V15.9105C6.69919 16.2361 6.43459 16.5 6.1082 16.5C5.7818 16.5 5.51721 16.2361 5.51721 15.9105V14.1577C4.88743 14.2522 4.34859 14.2213 3.87703 14.0905C3.28785 13.9269 2.85248 13.6209 2.50645 13.3009C2.33589 13.1432 2.18472 12.9799 2.05096 12.8316C2.01629 12.7931 1.98333 12.7563 1.95159 12.7209C1.85558 12.6137 1.77061 12.5188 1.68262 12.4281C1.44988 12.1883 1.28312 12.0739 1.11471 12.0318C0.798065 11.9528 0.60559 11.6327 0.684798 11.3169C0.764005 11.0011 1.08491 10.8091 1.40155 10.8881C1.89845 11.0121 2.25618 11.3241 2.53187 11.6081C2.63801 11.7175 2.74495 11.8369 2.84455 11.9482C2.87364 11.9807 2.90211 12.0125 2.92974 12.0431C3.05777 12.1851 3.17999 12.3161 3.30999 12.4363C3.56509 12.6721 3.83961 12.8563 4.19384 12.9547C4.51189 13.0429 4.93299 13.0725 5.51349 12.9626C5.52483 12.6592 5.58357 12.3587 5.68817 12.0722C5.71122 12.0091 5.73641 11.9468 5.76368 11.8856C4.93771 11.7121 4.11816 11.4179 3.44406 10.8775C2.48339 10.1075 1.90595 8.91247 1.89651 7.14209C1.89116 6.1372 2.37365 5.12535 2.97387 4.3707C2.76496 3.99702 2.60722 3.54661 2.51129 3.08284C2.37349 2.41659 2.34879 1.65451 2.5285 0.945113C2.60246 0.653173 2.88513 0.463763 3.18406 0.505836Z" fill="#A3A3A3"/>
</g>
<defs>
<clipPath id="clip0_135_2843">
<rect width="16" height="16" fill="white" transform="translate(0 0.5)"/>
</clipPath>
</defs>
</svg>
