<svg width="16" height="17" viewBox="0 0 16 17" fill="none" xmlns="http://www.w3.org/2000/svg">
<g clip-path="url(#clip0_135_2840)">
<path fill-rule="evenodd" clip-rule="evenodd" d="M9.70707 2.08686C10.4049 1.80536 11.1695 1.75678 11.8956 1.94881C12.4815 2.10375 13.0159 2.40822 13.4544 2.82888C14.0099 2.61505 14.5375 2.32378 15.023 1.96176C15.2286 1.80849 15.508 1.79977 15.7227 1.93995C15.9375 2.08011 16.0419 2.33938 15.9843 2.58927C15.7555 3.58273 15.2922 4.50048 14.6365 5.25717C14.6495 5.38587 14.6562 5.51523 14.6566 5.64475V5.64667C14.6566 9.92591 12.7102 13.0707 9.89507 14.6544C7.0898 16.2326 3.49906 16.2155 0.301907 14.3382C0.0598547 14.196 -0.0543381 13.9074 0.0249812 13.6381C0.104301 13.3688 0.356757 13.1882 0.637205 13.2C1.83532 13.2503 3.0227 12.9823 4.09311 12.4253C3.00499 11.75 2.23694 10.9384 1.71374 10.0652C1.05135 8.95977 0.801507 7.78984 0.756267 6.73783C0.7111 5.68761 0.868973 4.74027 1.0356 4.05929C1.11924 3.71745 1.20598 3.43913 1.27269 3.2441C1.30905 3.13783 1.34739 3.03219 1.38985 2.92819L1.39066 2.92625C1.47699 2.72013 1.67481 2.57419 1.89737 2.55315C2.12169 2.53196 2.33948 2.63585 2.46417 2.82351C3.08816 3.76263 3.91977 4.52047 4.88245 5.03261C5.6667 5.44983 6.51909 5.69403 7.38853 5.75425C7.38853 4.95626 7.56973 4.18586 8.00473 3.50854C8.41707 2.86652 9.0098 2.36815 9.70707 2.08686ZM2.19627 4.46435C2.05917 5.05791 1.94165 5.83876 1.97806 6.68529C2.01678 7.58557 2.22872 8.54544 2.76275 9.43664C3.29372 10.3228 4.1632 11.1752 5.57327 11.8376C5.76958 11.9298 5.90235 12.1191 5.92219 12.3351C5.94203 12.551 5.84596 12.7614 5.66973 12.8878C4.83037 13.49 3.89931 13.9242 2.92317 14.1753C5.1721 14.8772 7.44867 14.6275 9.29547 13.5886C11.6856 12.2439 13.4333 9.53217 13.4337 5.64777C13.4331 5.48607 13.4184 5.32486 13.3897 5.16624C13.3548 4.9734 13.4145 4.77553 13.5502 4.63411C13.7748 4.39997 13.9754 4.14261 14.1493 3.86648C13.9253 3.96205 13.697 4.04696 13.4649 4.12083C13.2266 4.19667 12.9661 4.11978 12.8073 3.92669C12.4816 3.53094 12.0532 3.25546 11.5829 3.13109C11.1131 3.00683 10.6187 3.03781 10.1646 3.22097C9.71007 3.40435 9.3138 3.73331 9.03367 4.16942C8.7534 4.60588 8.60467 5.12637 8.6114 5.66021L8.61153 5.66796L8.61147 6.37789C8.61147 6.70907 8.3478 6.98005 8.01673 6.98913C6.72927 7.02441 5.45508 6.72246 4.30808 6.11226C3.51658 5.69119 2.80333 5.13277 2.19627 4.46435Z" fill="#A3A3A3"/>
</g>
<defs>
<clipPath id="clip0_135_2840">
<rect width="16" height="16" fill="white" transform="translate(0 0.5)"/>
</clipPath>
</defs>
</svg>
