<svg width="48" height="48" viewBox="0 0 48 48" fill="none" xmlns="http://www.w3.org/2000/svg">
<rect width="48" height="48" rx="24" fill="#0E0E0E"/>
<g clip-path="url(#clip0_316_4857)">
<path d="M4.03406 16.2231H5.91912V28.6532H4.03406V16.2231Z" fill="white"/>
<path d="M23.059 16.2231H27.4063C29.0467 16.2231 30.3916 16.9565 31.1942 18.3182C31.8054 19.3658 31.8574 19.8373 31.8574 22.4381C31.8574 25.2318 31.7178 25.7211 31.159 26.5936C30.4267 27.7456 29.1342 28.6532 27.2838 28.6532H23.059V16.2231ZM24.9447 26.8727H27.1967C28.2614 26.8727 29.0122 26.5065 29.501 25.7906C29.9201 25.1625 29.9723 24.8127 29.9723 22.5082C29.9723 20.2735 29.9202 19.7326 29.4135 19.0515C28.8375 18.2651 28.2091 18.004 27.1967 18.004H24.9447V26.8727Z" fill="white"/>
<path d="M40.8575 25.8775H36.1431L35.1831 28.6532H33.1922L37.7148 16.2231H39.2861L43.8078 28.6532H41.8175L40.8575 25.8775ZM40.3158 24.2019L38.5184 18.7715H38.483L36.6847 24.2019H40.3158Z" fill="white"/>
<path d="M14.7025 18.7085C14.5951 18.8158 14.4192 18.8158 14.3119 18.7085L13.1917 17.588C13.0841 17.4807 13.0841 17.3049 13.1917 17.1976L14.3119 16.0775C14.4192 15.9703 14.5951 15.9703 14.7025 16.0775L15.8228 17.1976C15.9303 17.305 15.9303 17.4807 15.8228 17.588L14.7025 18.7085Z" fill="white"/>
<path d="M9.00729 19.2548C9.00717 19.2771 9.00717 19.3003 9.00729 19.3209V19.2548Z" fill="url(#paint0_linear_316_4857)"/>
<path d="M10.5645 28.6545C10.6084 28.6545 10.6477 28.6549 10.6847 28.6545H10.5645Z" fill="url(#paint1_linear_316_4857)"/>
<path d="M18.1504 17.7014C18.1546 17.6987 18.1588 17.6949 18.1634 17.6923C18.159 17.6947 18.1546 17.6988 18.1504 17.7014Z" fill="url(#paint2_linear_316_4857)"/>
<path d="M10.7941 28.6398C10.7768 28.6448 10.7591 28.6495 10.7401 28.6511C10.7586 28.6492 10.7768 28.6447 10.7941 28.6398Z" fill="url(#paint3_linear_316_4857)"/>
<path d="M9.01385 19.4021C9.01479 19.408 9.01619 19.414 9.01735 19.4195C9.01619 19.414 9.01444 19.408 9.01385 19.4021Z" fill="url(#paint4_linear_316_4857)"/>
<path d="M9.00736 26.967C9.00665 27.004 9.00724 27.0436 9.00736 27.0873V26.967Z" fill="url(#paint5_linear_316_4857)"/>
<path d="M18.1955 28.6348C18.2242 28.6451 18.2543 28.6514 18.2858 28.6532C18.254 28.6524 18.2237 28.6459 18.1955 28.6348Z" fill="url(#paint6_linear_316_4857)"/>
<path d="M10.9123 28.576C10.8909 28.5971 10.8652 28.6132 10.838 28.6264C10.863 28.6152 10.8876 28.5977 10.9123 28.576Z" fill="url(#paint7_linear_316_4857)"/>
<path d="M20.0074 26.9492V27.0975C20.0074 27.0417 20.0087 26.9941 20.0074 26.9492Z" fill="url(#paint8_linear_316_4857)"/>
<path d="M18.4496 28.6545H18.3116C18.3536 28.6553 18.3984 28.6545 18.4496 28.6545Z" fill="url(#paint9_linear_316_4857)"/>
<path d="M18.0204 28.3829V26.9393C18.0204 26.7899 18.1427 26.6675 18.2924 26.6675H19.7354C19.8473 26.6675 19.9439 26.7364 19.9854 26.8337C19.9725 26.8019 19.9544 26.7702 19.9225 26.7386L16.5353 23.35C16.428 23.2426 16.428 23.0669 16.5353 22.9595L19.8965 19.5964C19.9048 19.588 19.9091 19.5788 19.9164 19.5699C19.868 19.6137 19.8057 19.6422 19.7357 19.6422H18.2922C18.1427 19.6422 18.0203 19.5197 18.0203 19.3707V17.9268C18.0203 17.8551 18.0497 17.7904 18.0955 17.7419C18.0904 17.7467 18.0847 17.7483 18.0795 17.7537L14.702 21.1264C14.5948 21.2337 14.419 21.2337 14.3115 21.1264L10.9326 17.7561C10.9298 17.7531 10.9262 17.752 10.9234 17.7491C10.9658 17.7974 10.9935 17.8583 10.9939 17.9268L10.994 19.3707C10.9941 19.5197 10.8718 19.6422 10.7225 19.6422H9.27896C9.20813 19.6422 9.14484 19.6133 9.09625 19.5688C9.09872 19.5709 9.09931 19.5735 9.10166 19.5759L12.4785 22.9595C12.586 23.0669 12.586 23.2426 12.4785 23.35L9.09484 26.7342C9.06331 26.7657 9.04472 26.7974 9.03131 26.8297C9.07378 26.7347 9.1686 26.6674 9.27896 26.6674H10.7219C10.8714 26.6674 10.9935 26.7897 10.9938 26.9391L10.9939 28.3828C10.994 28.4573 10.9635 28.525 10.9145 28.5742C10.919 28.5699 10.924 28.5686 10.9287 28.5639L14.3114 25.1831C14.4188 25.076 14.5947 25.076 14.7019 25.1831L18.0881 28.5681C18.12 28.6 18.1517 28.6183 18.1842 28.6316C18.0884 28.5896 18.0204 28.4939 18.0204 28.3829Z" fill="url(#paint10_linear_316_4857)"/>
<path d="M19.9855 26.834C19.9988 26.8657 20.0059 26.9003 20.0064 26.9364C20.0045 26.9005 19.9984 26.8664 19.9855 26.834Z" fill="url(#paint11_linear_316_4857)"/>
<path d="M9.02546 26.8501C9.01734 26.8756 9.01146 26.9019 9.00958 26.9296C9.01041 26.9016 9.01676 26.8753 9.02546 26.8501Z" fill="url(#paint12_linear_316_4857)"/>
<path d="M10.7221 17.6554H9.27915C9.12962 17.6554 9.00726 17.7777 9.00726 17.9268V19.3707C9.00726 19.5197 9.12962 19.6422 9.27915 19.6422H10.7227C10.872 19.6422 10.9943 19.5197 10.9942 19.3707L10.9941 17.9268C10.9937 17.7776 10.8716 17.6554 10.7221 17.6554Z" fill="white"/>
<path d="M19.7353 17.6554H18.2923C18.1427 17.6554 18.0203 17.7777 18.0203 17.9268V19.3707C18.0203 19.5197 18.1426 19.6422 18.2923 19.6422H19.7357C19.8852 19.6422 20.0073 19.5197 20.0073 19.3707V17.9268C20.0064 17.7776 19.8846 17.6554 19.7353 17.6554Z" fill="white"/>
<path d="M10.7221 26.6674H9.27915C9.12962 26.6674 9.00726 26.7898 9.00726 26.9392V28.3829C9.00726 28.532 9.12962 28.6546 9.27915 28.6546H10.7227C10.872 28.6546 10.9943 28.532 10.9942 28.3829L10.9941 26.9392C10.9937 26.7898 10.8716 26.6674 10.7221 26.6674Z" fill="white"/>
<path d="M19.7353 26.6674H18.2923C18.1427 26.6674 18.0203 26.7898 18.0203 26.9392V28.3829C18.0203 28.532 18.1426 28.6546 18.2923 28.6546H19.7357C19.8852 28.6546 20.0073 28.532 20.0073 28.3829V26.9392C20.0064 26.7898 19.8846 26.6674 19.7353 26.6674Z" fill="white"/>
<path d="M4.59106 32.2363L4.12134 30.8134H4.34888L4.6731 31.8964H4.677L5.00122 30.8134H5.22876L4.75903 32.2363H4.59106Z" fill="white"/>
<path d="M10.6801 32.2363V30.8134H11.5903V31.0175H10.8959V31.4228H11.4877V31.6152H10.8959V32.0331H11.5903V32.2363H10.6801Z" fill="white"/>
<path d="M17.0915 32.2363V30.8134H17.3073V32.0331H18.0016V32.2363H17.0915Z" fill="white"/>
<path d="M23.5028 32.2363V30.8134H23.7186V32.0331H24.4129V32.2363H23.5028Z" fill="white"/>
<path d="M29.8663 31.5253C29.8663 31.3541 29.8708 31.2438 29.8799 31.1943C29.889 31.1448 29.9053 31.0992 29.9288 31.0576C29.962 30.9957 30.0163 30.9374 30.0918 30.8828C30.168 30.8281 30.2621 30.8007 30.3741 30.8007C30.4854 30.8007 30.5788 30.8281 30.6543 30.8828C30.7305 30.9374 30.7859 30.9957 30.8204 31.0576C30.8431 31.0992 30.8591 31.1448 30.8682 31.1943C30.8773 31.2438 30.8819 31.3541 30.8819 31.5253C30.8819 31.6966 30.8773 31.8069 30.8682 31.8564C30.8591 31.9059 30.8431 31.9514 30.8204 31.9931C30.7859 32.0556 30.7305 32.1139 30.6543 32.1679C30.5788 32.2213 30.4854 32.248 30.3741 32.248C30.2621 32.248 30.168 32.2213 30.0918 32.1679C30.0163 32.1139 29.962 32.0556 29.9288 31.9931C29.9053 31.9514 29.889 31.9059 29.8799 31.8564C29.8708 31.8069 29.8663 31.6966 29.8663 31.5253ZM30.0821 31.5253C30.0821 31.6718 30.087 31.7669 30.0967 31.8105C30.1071 31.8541 30.1264 31.8935 30.1543 31.9286C30.1758 31.9573 30.2051 31.982 30.2422 32.0029C30.2793 32.0231 30.3233 32.0331 30.3741 32.0331C30.4249 32.0331 30.4688 32.0231 30.5059 32.0029C30.543 31.982 30.5723 31.9573 30.5938 31.9286C30.6218 31.8935 30.6407 31.8541 30.6504 31.8105C30.6609 31.7669 30.6661 31.6718 30.6661 31.5253C30.6661 31.3795 30.6609 31.2848 30.6504 31.2411C30.6407 31.1975 30.6218 31.1575 30.5938 31.121C30.5723 31.0937 30.543 31.0696 30.5059 31.0488C30.4688 31.0279 30.4249 31.0175 30.3741 31.0175C30.3233 31.0175 30.2793 31.0279 30.2422 31.0488C30.2051 31.0696 30.1758 31.0937 30.1543 31.121C30.1264 31.1575 30.1071 31.1975 30.0967 31.2411C30.087 31.2848 30.0821 31.3795 30.0821 31.5253Z" fill="white"/>
<path d="M36.6506 31.0048V31.4365H36.9768C37.0575 31.4365 37.1181 31.414 37.1584 31.3691C37.1988 31.3242 37.219 31.2714 37.219 31.2109C37.219 31.1386 37.1949 31.0846 37.1467 31.0488C37.1064 31.0195 37.054 31.0048 36.9895 31.0048H36.6506ZM36.4348 32.2363V30.8134H36.9915C37.1132 30.8134 37.2096 30.8447 37.2805 30.9072C37.3202 30.9417 37.3538 30.985 37.3811 31.037C37.4091 31.0891 37.4231 31.1471 37.4231 31.2109C37.4231 31.3027 37.3984 31.3841 37.3489 31.455C37.3 31.5253 37.2327 31.5751 37.1467 31.6044L37.4768 32.2363H37.2209L36.927 31.6288H36.6506V32.2363H36.4348Z" fill="white"/>
<path d="M42.9555 32.2363V30.8134H43.8657V31.0175H43.1713V31.4228H43.7631V31.6152H43.1713V32.0331H43.8657V32.2363H42.9555Z" fill="white"/>
</g>
<defs>
<linearGradient id="paint0_linear_316_4857" x1="9.00725" y1="19.2548" x2="9.00725" y2="19.3209" gradientUnits="userSpaceOnUse">
<stop stop-color="#FF4848"/>
<stop offset="0.26875" stop-color="#2C4CBE"/>
<stop offset="0.570833" stop-color="#57176D"/>
<stop offset="1" stop-color="#7E174F" stop-opacity="0.89"/>
</linearGradient>
<linearGradient id="paint1_linear_316_4857" x1="10.6246" y1="28.6545" x2="10.6246" y2="28.6547" gradientUnits="userSpaceOnUse">
<stop stop-color="#FF4848"/>
<stop offset="0.26875" stop-color="#2C4CBE"/>
<stop offset="0.570833" stop-color="#57176D"/>
<stop offset="1" stop-color="#7E174F" stop-opacity="0.89"/>
</linearGradient>
<linearGradient id="paint2_linear_316_4857" x1="18.1569" y1="17.6923" x2="18.1569" y2="17.7014" gradientUnits="userSpaceOnUse">
<stop stop-color="#FF4848"/>
<stop offset="0.26875" stop-color="#2C4CBE"/>
<stop offset="0.570833" stop-color="#57176D"/>
<stop offset="1" stop-color="#7E174F" stop-opacity="0.89"/>
</linearGradient>
<linearGradient id="paint3_linear_316_4857" x1="10.7671" y1="28.6398" x2="10.7671" y2="28.6511" gradientUnits="userSpaceOnUse">
<stop stop-color="#FF4848"/>
<stop offset="0.26875" stop-color="#2C4CBE"/>
<stop offset="0.570833" stop-color="#57176D"/>
<stop offset="1" stop-color="#7E174F" stop-opacity="0.89"/>
</linearGradient>
<linearGradient id="paint4_linear_316_4857" x1="9.0156" y1="19.4021" x2="9.0156" y2="19.4195" gradientUnits="userSpaceOnUse">
<stop stop-color="#FF4848"/>
<stop offset="0.26875" stop-color="#2C4CBE"/>
<stop offset="0.570833" stop-color="#57176D"/>
<stop offset="1" stop-color="#7E174F" stop-opacity="0.89"/>
</linearGradient>
<linearGradient id="paint5_linear_316_4857" x1="9.00719" y1="26.967" x2="9.00719" y2="27.0873" gradientUnits="userSpaceOnUse">
<stop stop-color="#FF4848"/>
<stop offset="0.26875" stop-color="#2C4CBE"/>
<stop offset="0.570833" stop-color="#57176D"/>
<stop offset="1" stop-color="#7E174F" stop-opacity="0.89"/>
</linearGradient>
<linearGradient id="paint6_linear_316_4857" x1="18.2407" y1="28.6348" x2="18.2407" y2="28.6532" gradientUnits="userSpaceOnUse">
<stop stop-color="#FF4848"/>
<stop offset="0.26875" stop-color="#2C4CBE"/>
<stop offset="0.570833" stop-color="#57176D"/>
<stop offset="1" stop-color="#7E174F" stop-opacity="0.89"/>
</linearGradient>
<linearGradient id="paint7_linear_316_4857" x1="10.8751" y1="28.576" x2="10.8751" y2="28.6264" gradientUnits="userSpaceOnUse">
<stop stop-color="#FF4848"/>
<stop offset="0.26875" stop-color="#2C4CBE"/>
<stop offset="0.570833" stop-color="#57176D"/>
<stop offset="1" stop-color="#7E174F" stop-opacity="0.89"/>
</linearGradient>
<linearGradient id="paint8_linear_316_4857" x1="20.0077" y1="26.9492" x2="20.0077" y2="27.0975" gradientUnits="userSpaceOnUse">
<stop stop-color="#FF4848"/>
<stop offset="0.26875" stop-color="#2C4CBE"/>
<stop offset="0.570833" stop-color="#57176D"/>
<stop offset="1" stop-color="#7E174F" stop-opacity="0.89"/>
</linearGradient>
<linearGradient id="paint9_linear_316_4857" x1="18.3806" y1="28.6545" x2="18.3806" y2="28.6549" gradientUnits="userSpaceOnUse">
<stop stop-color="#FF4848"/>
<stop offset="0.26875" stop-color="#2C4CBE"/>
<stop offset="0.570833" stop-color="#57176D"/>
<stop offset="1" stop-color="#7E174F" stop-opacity="0.89"/>
</linearGradient>
<linearGradient id="paint10_linear_316_4857" x1="14.5084" y1="17.7419" x2="14.5084" y2="28.6316" gradientUnits="userSpaceOnUse">
<stop stop-color="#CAFB5B"/>
<stop offset="0.489583" stop-color="#FFC3ED"/>
<stop offset="1" stop-color="#B19BFF"/>
</linearGradient>
<linearGradient id="paint11_linear_316_4857" x1="19.9959" y1="26.834" x2="19.9959" y2="26.9364" gradientUnits="userSpaceOnUse">
<stop stop-color="#FF4848"/>
<stop offset="0.26875" stop-color="#2C4CBE"/>
<stop offset="0.570833" stop-color="#57176D"/>
<stop offset="1" stop-color="#7E174F" stop-opacity="0.89"/>
</linearGradient>
<linearGradient id="paint12_linear_316_4857" x1="9.01752" y1="26.8501" x2="9.01752" y2="26.9296" gradientUnits="userSpaceOnUse">
<stop stop-color="#FF4848"/>
<stop offset="0.26875" stop-color="#2C4CBE"/>
<stop offset="0.570833" stop-color="#57176D"/>
<stop offset="1" stop-color="#7E174F" stop-opacity="0.89"/>
</linearGradient>
<clipPath id="clip0_316_4857">
<rect width="40" height="16.7059" fill="white" transform="translate(4 16)"/>
</clipPath>
</defs>
</svg>
