<svg width="16" height="16" viewBox="0 0 16 16" fill="none" xmlns="http://www.w3.org/2000/svg">
<path d="M9.25849 0.0472412L9.2522 3.56755L9.24591 7.08786L8.95675 6.27065V6.26855L8.58167 14.1054C8.95046 15.1448 9.14743 15.7001 9.14952 15.7021C9.15162 15.7042 9.36116 15.7168 9.61471 15.7294C10.3816 15.7671 11.333 15.8488 12.0559 15.9389C12.2235 15.9599 12.366 15.9704 12.3765 15.962C12.387 15.9536 12.389 12.3704 12.387 7.99728L12.3807 0.0472412H9.25849Z" fill="#B1060F"/>
<path d="M3.61133 0.0367635V7.99518C3.61133 12.3725 3.61552 15.9578 3.62181 15.9641C3.62809 15.9704 3.8984 15.9431 4.22529 15.9075C4.55217 15.8719 5.00269 15.8258 5.2269 15.8069C5.57055 15.7776 6.6015 15.7126 6.71884 15.7105C6.75446 15.7105 6.75656 15.5324 6.76075 12.339L6.76704 8.96746L7.01639 9.67152C7.05411 9.78048 7.06668 9.81401 7.1044 9.92088L7.47948 2.08609C7.39985 1.86188 7.44176 1.97922 7.35166 1.72358C7.04573 0.85817 6.78589 0.126866 6.77542 0.0933396L6.75446 0.034668H3.61133V0.0367635Z" fill="#B1060F"/>
<path d="M9.25849 0.0472412L9.2522 3.56755L9.24591 7.08786L8.95675 6.27065V6.26855L8.58167 14.1054C8.95046 15.1448 9.14743 15.7001 9.14952 15.7021C9.15162 15.7042 9.36116 15.7168 9.61471 15.7294C10.3816 15.7671 11.333 15.8488 12.0559 15.9389C12.2235 15.9599 12.366 15.9704 12.3765 15.962C12.387 15.9536 12.389 12.3704 12.387 7.99728L12.3807 0.0472412H9.25849Z" fill="#B1060F"/>
<path d="M3.61133 0.0367635V7.99518C3.61133 12.3725 3.61552 15.9578 3.62181 15.9641C3.62809 15.9704 3.8984 15.9431 4.22529 15.9075C4.55217 15.8719 5.00269 15.8258 5.2269 15.8069C5.57055 15.7776 6.6015 15.7126 6.71884 15.7105C6.75446 15.7105 6.75656 15.5324 6.76075 12.339L6.76704 8.96746L7.01639 9.67152C7.05411 9.78048 7.06668 9.81401 7.1044 9.92088L7.47948 2.08609C7.39985 1.86188 7.44176 1.97922 7.35166 1.72358C7.04573 0.85817 6.78589 0.126866 6.77542 0.0933396L6.75446 0.034668H3.61133V0.0367635Z" fill="#B1060F"/>
<path d="M3.61133 0.0367635V4.50421L6.75865 12.8524C6.75865 12.6617 6.75865 12.5569 6.76075 12.339L6.76704 8.96746L7.01639 9.67152C8.39937 13.5942 9.14325 15.698 9.14744 15.7021C9.14953 15.7042 9.35907 15.7168 9.61262 15.7294C10.3795 15.7671 11.3309 15.8488 12.0538 15.9389C12.2214 15.9599 12.3639 15.9704 12.3744 15.962C12.3807 15.9557 12.3849 14.1997 12.3849 11.7208L9.2543 2.71471L9.25221 3.56755L9.24592 7.08786L8.95675 6.27065C8.67387 5.47229 8.48528 4.93796 7.34747 1.72358C7.04154 0.85817 6.7817 0.126866 6.77123 0.0933396L6.75027 0.034668H3.61133V0.0367635Z" fill="url(#paint0_radial_200_3419)"/>
<path d="M3.61133 0.0367635L6.76494 8.97374V8.96955L7.0143 9.67362C8.39937 13.5942 9.14325 15.698 9.14744 15.7021C9.14953 15.7042 9.35907 15.7168 9.61262 15.7294C10.3795 15.7671 11.3309 15.8488 12.0538 15.9389C12.2193 15.9599 12.3639 15.9704 12.3723 15.962L9.24592 7.08577V7.08786L8.95675 6.27065C8.67387 5.47229 8.48528 4.93796 7.34747 1.72358C7.04154 0.85817 6.7817 0.126866 6.77123 0.0933396L6.75027 0.034668H5.1808L3.61133 0.0367635Z" fill="#E50914"/>
<defs>
<radialGradient id="paint0_radial_200_3419" cx="0" cy="0" r="1" gradientUnits="userSpaceOnUse" gradientTransform="translate(7.85121 7.90739) rotate(-19.1007) scale(0.57823 21.1813)">
<stop/>
<stop offset="1" stop-opacity="0"/>
</radialGradient>
</defs>
</svg>
