<svg width="16" height="16" viewBox="0 0 16 16" fill="none" xmlns="http://www.w3.org/2000/svg">
<path d="M12.7323 7.09217C10.1535 5.56073 5.89993 5.41992 3.4382 6.16706C3.04287 6.28705 2.62481 6.06379 2.50506 5.66858C2.38524 5.27299 2.60817 4.85524 3.0038 4.73506C5.8297 3.87729 10.5273 4.04294 13.4961 5.80519C13.8516 6.01631 13.9683 6.47553 13.7575 6.8305C13.5466 7.18605 13.087 7.30326 12.7323 7.09217ZM12.6478 9.36045C12.4669 9.65402 12.0831 9.74612 11.7899 9.56584C9.63997 8.24431 6.36169 7.86148 3.81819 8.63356C3.48836 8.73324 3.13997 8.54725 3.03977 8.21804C2.94039 7.8882 3.12646 7.54045 3.4557 7.44015C6.36128 6.55845 9.97337 6.98552 12.4426 8.50295C12.7358 8.68353 12.8281 9.06755 12.6478 9.36045ZM11.6689 11.5388C11.5252 11.7746 11.2182 11.8485 10.9833 11.7048C9.10468 10.5566 6.74011 10.2973 3.9554 10.9333C3.68706 10.9949 3.41961 10.8267 3.35842 10.5584C3.29695 10.2902 3.46447 10.0227 3.73341 9.96143C6.78079 9.26478 9.39486 9.56461 11.5035 10.8531C11.7386 10.9967 11.8126 11.3038 11.6689 11.5388ZM8.00004 3.84737e-07C3.58179 3.84737e-07 0 3.58172 0 7.99989C0 12.4186 3.58179 16 8.00004 16C12.4184 16 16 12.4186 16 7.99989C16 3.58172 12.4184 3.84737e-07 8.00004 3.84737e-07Z" fill="#1DB954"/>
</svg>
